<?xml version="1.0" encoding="UTF-8" standalone="no"?>
<!-- Generator: Gravit.io -->

<svg
   xmlns:dc="http://purl.org/dc/elements/1.1/"
   xmlns:cc="http://creativecommons.org/ns#"
   xmlns:rdf="http://www.w3.org/1999/02/22-rdf-syntax-ns#"
   xmlns:svg="http://www.w3.org/2000/svg"
   xmlns="http://www.w3.org/2000/svg"
   xmlns:sodipodi="http://sodipodi.sourceforge.net/DTD/sodipodi-0.dtd"
   xmlns:inkscape="http://www.inkscape.org/namespaces/inkscape"
   style="isolation:isolate"
   viewBox="0 0 291 291"
   width="291pt"
   height="291pt"
   version="1.1"
   id="svg990"
   sodipodi:docname="logo.svg"
   inkscape:export-filename="/home/jalvivi/Documentos/projetos/AdmAppRefeicao/src/img/logo.png"
   inkscape:export-xdpi="96"
   inkscape:export-ydpi="96"
   inkscape:version="0.92.5 (2060ec1f9f, 2020-04-08)">
  <metadata
     id="metadata994">
    <rdf:RDF>
      <cc:Work
         rdf:about="">
        <dc:format>image/svg+xml</dc:format>
        <dc:type
           rdf:resource="http://purl.org/dc/dcmitype/StillImage" />
        <dc:title></dc:title>
      </cc:Work>
    </rdf:RDF>
  </metadata>
  <sodipodi:namedview
     pagecolor="#ffffff"
     bordercolor="#666666"
     borderopacity="1"
     objecttolerance="10"
     gridtolerance="10"
     guidetolerance="10"
     inkscape:pageopacity="0"
     inkscape:pageshadow="2"
     inkscape:window-width="1360"
     inkscape:window-height="704"
     id="namedview992"
     showgrid="false"
     inkscape:snap-text-baseline="true"
     inkscape:zoom="0.86019175"
     inkscape:cx="42.781531"
     inkscape:cy="205.65035"
     inkscape:window-x="0"
     inkscape:window-y="27"
     inkscape:window-maximized="1"
     inkscape:current-layer="g988" />
  <defs
     id="defs948">
    <clipPath
       id="_clipPath_RhhJaNQ3Gn3KfmjDtkiA0iZWE2710LKu">
      <rect
         width="291"
         height="291"
         id="rect945" />
    </clipPath>
  </defs>
  <g
     clip-path="url(#_clipPath_RhhJaNQ3Gn3KfmjDtkiA0iZWE2710LKu)"
     id="g988">
    <path
       d="M 291,145.087 C 291,225.216 226.044,290.174 145.913,290.174 65.784,290.174 0.828,225.216 0.828,145.087 0.828,64.958 65.784,0 145.913,0 226.044,0 291,64.958 291,145.087 Z"
       id="path950"
       inkscape:connector-curvature="0"
       style="fill:#000000" />
    <g
       id="g1413">
      <path
         style="fill:#ffffff"
         inkscape:connector-curvature="0"
         id="path952"
         d="m 167.324,180.854 c 6.375,0.888 9.614,-1.147 10.248,-7.099 0.648,-6.108 0.751,-12.289 0.798,-18.441 0.019,-2.431 -0.556,-4.927 -1.221,-7.291 -1.282,-4.556 -5.085,-6.446 -9.825,-5.066 z m -13.051,4.056 v -46.076 c 0.674,-0.056 1.257,-0.145 1.84,-0.145 5.647,-0.008 11.296,-0.036 16.944,0.009 9.958,0.077 15.766,4.6 18.149,14.32 1.543,6.293 1.437,12.666 -0.248,18.908 -2.088,7.72 -7.632,12.409 -15.651,12.902 -6.631,0.408 -13.301,0.231 -19.954,0.301 -0.32,0.002 -0.64,-0.127 -1.08,-0.219 z" />
      <path
         style="fill:#ffffff"
         inkscape:connector-curvature="0"
         id="path954"
         d="m 133.905,149.647 c -0.272,1.643 -0.668,2.995 -0.68,4.35 -0.023,2.391 0.042,4.803 0.379,7.162 0.122,0.855 0.985,1.772 1.749,2.332 1.578,1.151 3.106,0.661 3.538,-1.261 0.465,-2.073 0.665,-4.245 0.677,-6.375 0.065,-10.756 0.032,-21.513 0.032,-32.272 v -2.52 h 12.75 c 0.042,0.779 0.116,1.495 0.118,2.21 0.004,9.143 0.109,18.29 -0.059,27.43 -0.061,3.25 -0.472,6.573 -1.295,9.711 -1.279,4.862 -4.874,7.644 -9.317,7.884 -5.826,0.316 -10.753,-2.224 -12.803,-6.623 -1.555,-3.342 -0.608,-6.722 -0.054,-10.077 0.061,-0.379 0.707,-0.796 1.161,-0.952 1.126,-0.378 2.297,-0.614 3.804,-0.999 z" />
      <path
         style="fill:#ffffff"
         inkscape:connector-curvature="0"
         id="path956"
         d="m 101.367,131.24 c 0,-2.542 -0.127,-4.371 0.057,-6.168 0.082,-0.817 0.652,-2.088 1.224,-2.227 0.775,-0.187 2.301,0.282 2.566,0.882 1.002,2.275 1.997,4.666 2.321,7.105 1.095,8.25 -1.239,16.069 -3.348,23.926 -0.916,3.409 -1.448,6.947 -1.856,10.46 -0.849,7.282 1.959,13.249 7.048,18.294 1.715,1.702 3.494,3.353 5.114,5.141 1.303,1.438 1.038,2.105 -0.778,2.69 -4.003,1.288 -7.356,0.223 -10.271,-2.704 -3.626,-3.646 -5.569,-8.158 -6.889,-13.018 -2.338,-8.618 -1.107,-17.018 1.427,-25.378 1.945,-6.425 3.947,-12.863 3.385,-19.003 z" />
      <path
         style="fill:#ffffff"
         inkscape:connector-curvature="0"
         id="path958"
         d="m 145.838,77.888 c -2.959,0.947 -5.354,1.717 -7.752,2.479 -6.762,2.145 -13.554,4.193 -20.274,6.462 -3.704,1.25 -7.099,3.138 -9.959,5.922 -1.89,1.844 -6.537,1.941 -9.421,0.398 5.479,-9.768 37.274,-20.361 47.406,-15.261 z" />
    </g>
    <path
       d="m 83.167,107.443 c -0.916,0.25 -1.85,0.766 -2.743,0.7 -3.123,-0.231 -6.354,-0.246 -9.325,-1.098 -7.689,-2.204 -11.14,-8.261 -12.09,-16.619 -0.566,-4.994 -0.943,-10.005 -1.475,-15.002 -0.522,-4.899 -2.951,-8.696 -6.922,-11.55 -0.265,-0.192 -0.499,-0.425 -0.834,-0.714 3.904,0.104 9.391,4.206 10.519,8.24 0.88,3.136 1.118,6.447 1.726,9.663 0.808,4.264 1.444,8.585 2.625,12.748 1.315,4.63 4.824,7.482 9.163,9.292 1.979,0.825 4.039,1.458 6.051,2.205 1.105,0.413 2.191,0.882 3.286,1.326 z"
       id="path970"
       inkscape:connector-curvature="0"
       style="fill:#ff0404" />
    <path
       d="M 80.869,100.365 C 74.25,97.199 69.27,92.931 68.746,85.39 68.298,78.908 68.432,72.385 68.258,65.882 c -0.049,-1.806 -0.051,-3.664 -0.484,-5.396 -0.44,-1.764 -1.385,-3.399 -2.194,-5.283 0.312,0.114 0.76,0.196 1.11,0.425 3.624,2.387 4.971,6.064 5.415,10.111 0.32,2.927 0.297,5.895 0.415,8.844 0.134,3.285 0.174,6.575 0.402,9.854 0.378,5.548 2.853,10.129 6.77,13.989 0.381,0.375 0.756,0.76 1.109,1.16 0.068,0.078 0.026,0.251 0.068,0.779 z"
       id="path972"
       inkscape:connector-curvature="0"
       style="fill:#ff0404" />
    <path
       d="m 52.219,84.031 c 0.362,5.11 1.278,10.044 3.353,14.769 2.195,4.996 6.653,7.463 10.841,10.382 -4.849,0.313 -8.378,-2.155 -11.38,-5.436 -4.369,-4.78 -5.758,-14.358 -2.814,-19.715 z"
       id="path976"
       inkscape:connector-curvature="0"
       style="fill:#ff0404" />
    <g
       id="g1407"
       style="fill:#3e3c5f;fill-opacity:1"
       transform="translate(0,-0.001)">
      <path
         style="fill:#3e3c5f;fill-opacity:1"
         inkscape:connector-curvature="0"
         id="path960"
         d="m 101.367,131.24 c 0.562,6.14 -1.44,12.578 -3.385,19.003 -2.534,8.36 -3.765,16.76 -1.427,25.378 1.32,4.86 3.263,9.372 6.889,13.018 2.915,2.927 6.268,3.992 10.271,2.704 1.816,-0.585 2.081,-1.252 0.778,-2.69 -1.62,-1.789 -3.399,-3.439 -5.114,-5.141 -5.089,-5.045 -7.897,-11.012 -7.048,-18.294 0.408,-3.513 0.94,-7.051 1.856,-10.46 2.109,-7.857 4.443,-15.676 3.348,-23.926 -0.324,-2.439 -1.319,-4.83 -2.321,-7.105 -0.265,-0.6 -1.791,-1.07 -2.566,-0.882 -0.572,0.139 -1.142,1.41 -1.224,2.227 -0.184,1.797 -0.057,3.626 -0.057,6.168 z m 32.538,18.408 c -1.507,0.383 -2.679,0.621 -3.803,0.999 -0.455,0.154 -1.101,0.573 -1.162,0.952 -0.554,3.352 -1.501,6.735 0.055,10.075 2.05,4.398 6.977,6.941 12.802,6.623 4.443,-0.24 8.038,-3.022 9.318,-7.884 0.823,-3.138 1.233,-6.459 1.294,-9.709 0.168,-9.142 0.063,-18.287 0.059,-27.432 -0.002,-0.713 -0.076,-1.429 -0.118,-2.208 H 139.6 v 2.517 c 0,10.759 0.034,21.516 -0.032,32.275 -0.012,2.13 -0.212,4.3 -0.677,6.375 -0.432,1.92 -1.96,2.412 -3.538,1.259 -0.764,-0.558 -1.627,-1.475 -1.749,-2.332 -0.337,-2.359 -0.402,-4.771 -0.379,-7.16 0.013,-1.358 0.408,-2.709 0.68,-4.35 z m 20.369,35.261 c 0.44,0.093 0.76,0.221 1.077,0.219 6.655,-0.069 13.323,0.107 19.957,-0.301 8.016,-0.492 13.562,-5.179 15.648,-12.901 1.688,-6.243 1.793,-12.616 0.25,-18.907 -2.382,-9.721 -8.191,-14.242 -18.15,-14.322 -5.647,-0.044 -11.296,-0.015 -16.943,-0.008 -0.585,0.002 -1.166,0.09 -1.839,0.145 z M 82.875,132.396 c 3.231,1.155 6.615,2.367 10.178,3.643 0.979,-3.435 1.505,-6.758 0.806,-10.046 -0.319,-1.502 -1.443,-2.986 -2.559,-4.127 -1.787,-1.829 -3.809,-3.409 -4.199,-6.535 3.172,-0.261 6.27,-0.635 9.379,-0.749 33.329,-1.225 66.669,-1.61 100.017,-1.164 9.261,0.124 18.511,0.909 27.763,1.463 1.433,0.086 2.848,0.56 4.342,0.867 -0.549,2.727 -2.195,4.382 -3.925,5.971 -1.829,1.677 -3.467,3.571 -3.483,6.141 -0.017,2.381 0.418,4.774 0.795,7.139 0.04,0.242 1.122,0.592 1.585,0.451 2.761,-0.832 5.483,-1.794 8.204,-3.031 -1.602,0 -3.212,0.099 -4.801,-0.023 -3.106,-0.238 -3.616,-0.92 -2.828,-3.721 1.193,-4.243 3.862,-6.377 8.296,-6.02 2.787,0.223 5.544,0.952 8.274,1.617 0.465,0.113 0.993,1.046 1.033,1.631 0.204,2.881 0.326,5.775 0.295,8.665 -0.009,0.616 -0.653,1.496 -1.238,1.795 -4.174,2.136 -8.368,4.243 -12.63,6.19 -5.11,2.332 -4.357,0.821 -3.283,6.449 1.143,5.989 2.525,11.939 3.527,17.952 1.859,11.142 -3.912,23.175 -13.508,28.196 -5.787,3.029 -12.144,3.85 -18.565,3.829 -22.183,-0.076 -44.366,-0.284 -66.549,-0.417 -5.447,-0.031 -10.896,-0.042 -16.341,0.076 -7.404,0.162 -13.655,-2.092 -18.586,-7.886 -4.327,-5.081 -8.217,-10.303 -9.082,-17.17 -0.637,-5.058 0.747,-9.856 1.825,-14.71 0.928,-4.182 1.675,-8.406 2.555,-12.6 0.24,-1.151 -0.2,-1.745 -1.202,-2.183 -3.258,-1.427 -6.52,-2.849 -9.734,-4.371 -1.263,-0.596 -2.487,-1.345 -3.582,-2.21 -3.275,-2.597 -4.382,-5.754 -3.296,-8.997 1.008,-3.012 4.557,-5.759 8.185,-5.473 2.932,0.232 5.933,1.114 8.625,2.326 2.04,0.92 1.339,3.487 1.322,5.314 -0.004,0.581 -1.724,1.463 -2.759,1.644 -1.602,0.278 -3.288,0.074 -4.856,0.074 z" />
      <path
         style="fill:#3e3c5f;fill-opacity:1"
         inkscape:connector-curvature="0"
         id="path962"
         d="m 145.838,77.888 c -10.132,-5.1 -41.927,5.493 -47.406,15.261 2.884,1.543 7.531,1.446 9.421,-0.398 2.86,-2.784 6.255,-4.672 9.959,-5.922 6.72,-2.269 13.512,-4.317 20.274,-6.462 2.398,-0.762 4.793,-1.532 7.752,-2.479 z m 4.897,-6.889 c -0.381,-2.104 -0.873,-4.196 -1.109,-6.316 -0.2,-1.791 -0.282,-3.632 -0.094,-5.417 0.362,-3.469 2.696,-5.906 6.204,-6.489 6.015,-0.997 11.778,0.106 17.235,2.65 3.292,1.539 4.376,4.384 3.422,8.349 -0.673,2.802 -1.452,5.584 -2.344,8.322 -0.499,1.532 -0.143,2.385 1.311,3.02 6.276,2.732 12.54,5.485 18.782,8.288 7.185,3.229 14.259,6.662 19.878,12.401 4.275,4.367 6.807,9.545 7.297,15.985 -1.635,-0.128 -3.133,-0.2 -4.621,-0.373 -8.655,-1.01 -17.307,-2.06 -25.962,-3.064 -6.385,-0.743 -12.779,-1.414 -19.165,-2.161 -8.721,-1.021 -17.435,-2.118 -26.156,-3.122 -8.85,-1.018 -17.713,-1.936 -26.563,-2.952 -6.257,-0.72 -12.502,-1.547 -18.753,-2.299 -1.862,-0.225 -3.736,-0.393 -5.607,-0.509 -1.224,-0.078 -1.517,-0.463 -1.334,-1.774 0.892,-6.38 5.266,-9.886 10.342,-12.797 7.139,-4.095 15.019,-6.137 22.992,-7.692 7.951,-1.547 15.98,-2.686 24.245,-4.05 z" />
      <path
         style="fill:#3e3c5f;fill-opacity:1"
         inkscape:connector-curvature="0"
         id="path964"
         d="m 182.343,223.122 c 0.138,2.485 -0.849,3.801 -2.505,4.91 -0.793,0.53 -1.538,1.566 -1.726,2.492 -0.393,1.938 -1.494,2.726 -3.308,2.871 -2.543,0.202 -5.081,0.473 -7.628,0.612 -1.41,0.076 -2.201,0.451 -2.367,2.069 -0.068,0.64 -1.156,1.671 -1.787,1.677 -4.138,0.043 -8.282,-0.077 -12.418,-0.296 -1.465,-0.078 -2.458,-1.008 -2.582,-2.618 -0.099,-1.312 -0.939,-1.615 -2.101,-1.577 -1.946,0.061 -3.895,0.055 -5.846,0.078 -1.867,0.023 -3.115,-0.657 -3.246,-2.732 -0.105,-1.667 -1.359,-1.888 -2.683,-2.159 -1.006,-0.204 -2.391,-0.472 -2.804,-1.179 -0.612,-1.052 -0.715,-2.536 -0.597,-3.792 0.035,-0.346 1.641,-0.764 2.525,-0.767 15.398,-0.046 30.796,-0.04 46.193,-0.012 0.964,0.002 1.928,0.278 2.88,0.423 z" />
      <path
         style="fill:#3e3c5f;fill-opacity:1"
         inkscape:connector-curvature="0"
         id="path966"
         d="m 88.856,233.137 c 0.332,-1.467 0.593,-2.759 0.92,-4.036 1.999,-7.794 4.068,-15.571 5.97,-23.389 0.394,-1.608 1.192,-2.236 2.682,-2.339 4.283,-0.29 8.564,-0.635 12.851,-0.848 1.324,-0.065 2.698,0.091 3.992,0.385 2.549,0.579 4.041,2.572 3.898,5.123 -0.027,0.514 -0.421,1.271 -0.846,1.452 -1.808,0.773 -3.649,1.697 -5.563,1.953 -2.441,0.329 -4.964,0.158 -7.444,0.028 -1.603,-0.084 -2.109,0.509 -2.102,2.052 0.021,5.979 -0.028,11.956 -0.087,17.936 -0.023,2.755 -0.109,2.839 -2.866,2.639 -3.732,-0.274 -7.457,-0.621 -11.405,-0.956 z" />
      <path
         style="fill:#3e3c5f;fill-opacity:1"
         inkscape:connector-curvature="0"
         id="path968"
         d="m 195.635,211.489 c -0.272,-1.297 -0.51,-1.949 -0.529,-2.606 -0.086,-3.386 1.01,-5.495 4.29,-5.586 4.691,-0.128 9.388,-0.052 14.084,-0.019 4.94,0.034 4.879,0.07 5.891,4.854 1.753,8.267 3.595,16.517 5.394,24.776 0.057,0.254 0.074,0.52 0.145,1.061 -1.109,0.052 -2.14,0.174 -3.167,0.13 -2.751,-0.114 -5.5,-0.379 -8.253,-0.427 -1.709,-0.03 -2.329,-0.623 -2.296,-2.397 0.099,-5.58 0.034,-11.164 0.03,-16.747 -0.002,-3.008 -0.004,-3.025 -3.09,-3.035 -4.155,-0.015 -8.311,-0.004 -12.499,-0.004 z" />
      <path
         style="fill:#3e3c5f;fill-opacity:1"
         inkscape:connector-curvature="0"
         id="path974"
         d="m 139.349,215.705 c 0.598,-3.609 1.976,-6.446 4.468,-8.686 1.551,-1.395 2.701,-1.164 3.313,0.792 0.815,2.601 1.404,5.285 1.884,7.97 0.126,0.709 -0.507,1.555 -0.794,2.338 -0.635,-0.376 -1.3,-0.705 -1.892,-1.14 -0.478,-0.354 -0.827,-1.124 -1.3,-1.183 -0.586,-0.072 -1.615,0.246 -1.785,0.665 -0.43,1.063 -0.604,2.637 -2,2.138 -0.865,-0.307 -1.277,-1.886 -1.894,-2.894 z" />
      <path
         style="fill:#3e3c5f;fill-opacity:1"
         inkscape:connector-curvature="0"
         id="path978"
         d="m 181.469,215.971 c -0.484,0.886 -0.589,1.393 -0.884,1.559 -0.753,0.427 -1.595,0.703 -2.401,1.04 -0.228,-0.815 -0.798,-1.711 -0.63,-2.433 0.838,-3.563 2.534,-6.71 5.155,-9.644 0.532,0.609 1.096,0.981 1.25,1.482 0.953,3.125 1.949,6.253 2.612,9.446 0.168,0.823 -0.813,1.881 -1.265,2.833 -0.762,-0.64 -1.589,-1.217 -2.265,-1.937 -0.549,-0.589 -0.915,-1.347 -1.572,-2.346 z" />
      <path
         style="fill:#3e3c5f;fill-opacity:1"
         inkscape:connector-curvature="0"
         id="path980"
         d="m 150.855,216.525 c 1.362,-2.784 2.603,-5.512 4.028,-8.139 0.587,-1.081 1.821,-1.189 2.498,-0.143 1.512,2.345 2.928,4.772 4.14,7.28 0.539,1.112 0.261,2.48 -1.155,3.035 -1.511,0.594 -1.964,-0.608 -2.5,-1.643 -0.939,-1.823 -1.438,-1.834 -2.53,-0.095 -0.249,0.396 -0.402,1.021 -0.75,1.155 -0.753,0.295 -1.654,0.571 -2.395,0.409 -0.471,-0.106 -0.764,-1.015 -1.336,-1.859 z" />
      <path
         style="fill:#3e3c5f;fill-opacity:1"
         inkscape:connector-curvature="0"
         id="path982"
         d="m 171.086,206.06 c 1.033,2.838 2.235,5.63 3.007,8.539 0.244,0.922 -0.421,2.383 -1.147,3.132 -0.326,0.337 -1.972,-0.261 -2.768,-0.802 -1.155,-0.787 -1.723,-0.484 -2.451,0.509 -0.369,0.507 -1.112,0.745 -1.684,1.105 -0.299,-0.69 -0.878,-1.399 -0.836,-2.069 0.068,-1.098 0.362,-2.264 0.874,-3.239 1.284,-2.45 2.742,-4.809 4.131,-7.206 0.291,0.01 0.581,0.021 0.874,0.031 z" />
      <path
         style="fill:#3e3c5f;fill-opacity:1"
         inkscape:connector-curvature="0"
         id="path984"
         d="m 136.433,218.958 c -2.783,-3.614 -3.749,-3.448 -5.634,0.438 -0.337,0.696 -1.337,1.071 -2.029,1.593 -0.415,-0.737 -1.337,-1.638 -1.16,-2.185 1.082,-3.344 2.385,-6.619 3.725,-9.873 0.103,-0.25 1.478,-0.341 1.543,-0.191 1.324,3.03 2.553,6.107 3.771,9.186 0.076,0.196 -0.094,0.491 -0.216,1.032 z" />
      <path
         style="fill:#3e3c5f;fill-opacity:1"
         inkscape:connector-curvature="0"
         id="path986"
         d="m 167.324,180.854 v -37.896 c 4.74,-1.381 8.543,0.509 9.825,5.065 0.665,2.364 1.24,4.86 1.221,7.291 -0.047,6.152 -0.15,12.333 -0.798,18.441 -0.634,5.952 -3.873,7.987 -10.248,7.099 z" />
    </g>
    <text
       xml:space="preserve"
       style="font-style:normal;font-variant:normal;font-weight:bold;font-stretch:normal;font-size:34.6888237px;line-height:1.25;font-family:Verdana;-inkscape-font-specification:'Verdana Bold';letter-spacing:0px;word-spacing:0px;fill:#ff0404;fill-opacity:1;stroke:none;stroke-width:0.36134192;"
       x="102.78046"
       y="270.03812"
       id="text5244"><tspan
         sodipodi:role="line"
         id="tspan5242"
         x="102.78046"
         y="270.03812"
         style="font-style:normal;font-variant:normal;font-weight:bold;font-stretch:normal;font-family:Verdana;-inkscape-font-specification:'Verdana Bold';fill:#ff0404;stroke-width:0.36134192;fill-opacity:1;">ADM</tspan></text>
  </g>
</svg>
